<svg xmlns="http://www.w3.org/2000/svg" viewBox="0 0 1600 1000" role="img" aria-label="De World 背景 placeholder">
  <defs>
    <linearGradient id="sky" x1="0" x2="1" y1="0" y2="1">
      <stop offset="0" stop-color="#07111f"/>
      <stop offset="0.45" stop-color="#17213b"/>
      <stop offset="1" stop-color="#050710"/>
    </linearGradient>
    <radialGradient id="portal" cx="50%" cy="36%" r="36%">
      <stop offset="0" stop-color="#60efff" stop-opacity="0.65"/>
      <stop offset="0.35" stop-color="#7a5cff" stop-opacity="0.28"/>
      <stop offset="1" stop-color="#000" stop-opacity="0"/>
    </radialGradient>
  </defs>
  <rect width="1600" height="1000" fill="url(#sky)"/>
  <rect width="1600" height="1000" fill="url(#portal)"/>
  <path d="M0 760 L170 620 L340 710 L520 540 L700 690 L880 520 L1080 700 L1290 560 L1600 720 L1600 1000 L0 1000 Z" fill="#07101f"/>
  <path d="M0 840 L240 760 L470 820 L760 700 L980 820 L1220 740 L1600 850 L1600 1000 L0 1000 Z" fill="#04070f"/>
  <g fill="#f7cf6a" opacity="0.85">
    <circle cx="180" cy="160" r="2"/>
    <circle cx="320" cy="260" r="2"/>
    <circle cx="520" cy="130" r="2"/>
    <circle cx="780" cy="210" r="3"/>
    <circle cx="1040" cy="150" r="2"/>
    <circle cx="1320" cy="260" r="2"/>
    <circle cx="1440" cy="110" r="3"/>
  </g>
  <text x="800" y="492" text-anchor="middle" fill="#ffffff" opacity="0.18" font-family="Arial, sans-serif" font-size="54" font-weight="700">BACKGROUND PLACEHOLDER</text>
</svg>
