<svg xmlns="http://www.w3.org/2000/svg" viewBox="0 0 400 400" role="img" aria-label="QR Code placeholder">
  <rect width="400" height="400" fill="#ffffff"/>
  <g fill="#101729">
    <rect x="40" y="40" width="92" height="92"/>
    <rect x="268" y="40" width="92" height="92"/>
    <rect x="40" y="268" width="92" height="92"/>
    <rect x="62" y="62" width="48" height="48" fill="#ffffff"/>
    <rect x="290" y="62" width="48" height="48" fill="#ffffff"/>
    <rect x="62" y="290" width="48" height="48" fill="#ffffff"/>
    <rect x="168" y="54" width="34" height="34"/>
    <rect x="216" y="88" width="28" height="28"/>
    <rect x="156" y="150" width="42" height="42"/>
    <rect x="224" y="156" width="32" height="32"/>
    <rect x="284" y="170" width="48" height="48"/>
    <rect x="156" y="226" width="30" height="30"/>
    <rect x="210" y="238" width="52" height="52"/>
    <rect x="290" y="278" width="34" height="34"/>
    <rect x="164" y="326" width="38" height="38"/>
    <rect x="244" y="330" width="24" height="24"/>
  </g>
  <text x="200" y="212" text-anchor="middle" fill="#60efff" font-family="Arial, sans-serif" font-size="26" font-weight="700">QR</text>
</svg>
